<?xml version="1.0" encoding="utf-8"?>
<!DOCTYPE svg PUBLIC "-//W3C//DTD SVG 1.0//EN" "http://www.w3.org/TR/2001/REC-SVG-20010904/DTD/svg10.dtd">
<svg version="1.0" xmlns="http://www.w3.org/2000/svg" width="661px" height="378px" viewBox="0 0 661 378" preserveAspectRatio="xMidYMid meet">
 <g fill="#010101">
  <path d="M359.03 276.35 c0 -0.98 -0.74 -1.18 -7.77 -1.97 -5.41 -0.54 -12.98 -0.44 -23.31 0.44 -4.18 0.34 -6.30 1.03 -6.30 2.02 0 0.15 8.41 0.30 18.69 0.30 17.02 0 18.69 -0.05 18.69 -0.79z m-30.49 -8.36 c4.97 -0.54 24.94 -0.30 30 0.34 l2.26 0.30 1.77 -4.38 c0.98 -2.36 2.61 -6.20 3.54 -8.46 l1.77 -4.08 -3.30 2.95 c-1.87 1.62 -3.79 3.39 -4.28 3.98 -0.59 0.69 -1.52 1.03 -2.66 1.03 l-1.72 0 0.25 -6.10 0.25 -6.15 -3.69 4.67 c-3.44 4.28 -3.84 4.62 -5.46 4.62 l-1.77 0 -2.46 -9.30 c-1.33 -5.11 -2.56 -9.20 -2.70 -9.10 -0.15 0.15 -1.23 4.28 -2.51 9.20 l-2.21 8.95 -1.72 0.15 c-1.62 0.15 -1.92 -0.10 -5.07 -4.03 -1.82 -2.31 -3.54 -4.33 -3.84 -4.52 -0.34 -0.20 -0.39 1.43 -0.15 5.41 l0.34 5.71 -1.92 0 c-1.77 0 -2.36 -0.39 -6.25 -3.98 l-4.23 -3.98 1.77 4.13 c0.98 2.21 2.70 6.25 3.79 8.90 2.02 4.82 2.07 4.87 3.54 4.57 0.79 -0.15 3.79 -0.54 6.64 -0.84z m-19.97 -24.39 c0.20 -0.44 0 -1.13 -0.44 -1.57 -0.64 -0.69 -0.84 -0.69 -1.52 0 -0.69 0.74 -0.69 0.89 0.05 1.62 1.03 0.98 1.52 0.98 1.92 -0.05z m65.71 0.05 c0.54 -0.59 0.49 -0.89 -0.15 -1.57 -0.74 -0.74 -0.93 -0.74 -1.57 -0.05 -0.84 0.84 -0.54 2.41 0.49 2.41 0.34 0 0.89 -0.34 1.23 -0.79z m-50.46 -1.03 c0.44 -1.18 -0.44 -1.92 -1.43 -1.13 -0.59 0.49 -0.64 0.79 -0.20 1.28 0.74 0.93 1.23 0.89 1.62 -0.15z m34.67 -1.43 c-0.69 -0.69 -0.84 -0.69 -1.43 0 -0.49 0.64 -0.49 0.93 0 1.57 0.59 0.69 0.74 0.69 1.43 0 0.69 -0.74 0.69 -0.84 0 -1.57z m-16.48 -9.30 c1.57 -1.48 1.52 -2.51 -0.25 -3.79 -1.08 -0.84 -1.48 -0.89 -2.26 -0.34 -1.97 1.23 -2.21 2.21 -0.84 3.89 0.69 0.79 1.43 1.48 1.62 1.48 0.25 0 0.98 -0.54 1.72 -1.23z m-101.12 -22.23 c-0.49 -0.10 -1.38 -0.10 -1.97 0 -0.64 0.10 -0.25 0.20 0.84 0.20 1.08 0.05 1.57 -0.05 1.13 -0.20z m32.95 0 c-0.49 -0.10 -1.28 -0.10 -1.72 0 -0.49 0.15 -0.10 0.25 0.84 0.25 0.93 0 1.33 -0.10 0.89 -0.25z m28.62 -7.72 l0 -7.62 1.72 -0.15 1.67 -0.15 -1.52 -2.61 c-0.84 -1.48 -1.67 -2.46 -1.87 -2.21 -0.64 0.64 -1.13 20.31 -0.54 20.31 0.34 0 0.54 -2.61 0.54 -7.57z m19.67 2.80 c0 -6.39 -0.59 -15.89 -0.93 -15.89 -0.15 0 -1.13 1.33 -2.16 2.95 l-1.82 2.95 1.97 0 1.97 0 0 7.38 c0 4.57 0.20 7.38 0.49 7.38 0.30 0 0.49 -1.92 0.49 -4.77z m20.16 0.84 c0 -3.34 0.10 -3.93 0.84 -3.93 0.74 0 0.74 -0.05 -0.05 -0.64 -0.74 -0.54 -0.84 -1.33 -0.69 -6.34 0.10 -4.38 0 -5.61 -0.44 -5.46 -0.79 0.30 -0.93 20.31 -0.15 20.31 0.30 0 0.49 -1.62 0.49 -3.93z m66.05 -11.71 l1.82 -0.15 -0.93 -1.33 c-0.54 -0.74 -1.52 -1.97 -2.21 -2.80 l-1.23 -1.48 0.05 10.82 0.10 10.82 0.30 -7.87 0.25 -7.87 1.87 -0.15z m14.02 4.97 c-0.10 -10.48 -0.15 -10.52 -0.25 -2.46 l-0.15 8.21 -1.48 0 c-0.84 0 -1.48 0.10 -1.48 0.25 0 0.30 3.10 4.67 3.30 4.67 0.10 0 0.10 -4.82 0.05 -10.67z m26.16 6.30 c0 -2.41 0.15 -4.72 0.30 -5.16 0.20 -0.54 0 -0.79 -0.59 -0.79 -0.89 0 -0.93 0.39 -0.79 5.16 0.10 2.85 0.34 5.16 0.64 5.16 0.25 0 0.44 -1.97 0.44 -4.38z m-63 -1.87 c0 -0.25 -0.20 -0.84 -0.44 -1.38 -0.39 -0.93 -0.44 -0.93 -0.44 0.15 -0.05 1.03 -0.20 1.08 -5.41 1.08 l-5.41 0 -0.15 -1.28 -0.15 -1.33 -0.59 1.57 -0.54 1.52 6.59 0 c3.64 0 6.59 -0.15 6.54 -0.34z m-122.66 -4.33 c0 -2.02 -0.15 -3.30 -0.34 -2.80 -0.59 1.48 -0.39 6.49 0.30 6.49 0 0 0.05 -1.67 0.05 -3.69z m20.36 0 c0 -0.79 -0.20 -1.92 -0.44 -2.46 -0.30 -0.69 -0.44 0.10 -0.44 2.46 0 2.36 0.15 3.15 0.44 2.46 0.25 -0.54 0.44 -1.62 0.44 -2.46z m-53.61 -0.10 c-0.05 -2.16 -0.15 -2.51 -0.39 -1.38 -0.30 1.43 -0.15 4.18 0.25 4.18 0.10 0 0.15 -1.28 0.15 -2.80z m126.30 -4.67 c-0.10 -0.64 -0.20 -0.25 -0.20 0.84 -0.05 1.08 0.05 1.57 0.20 1.13 0.10 -0.49 0.10 -1.38 0 -1.97z m24.74 -3.15 c0 -0.15 -0.25 -0.69 -0.49 -1.23 -0.54 -0.93 -1.97 -1.33 -1.97 -0.49 0 0.25 -0.15 0.79 -0.30 1.23 -0.25 0.64 0.05 0.79 1.23 0.79 0.84 0 1.52 -0.15 1.52 -0.30z m-239.61 -3.39 c2.41 -0.98 2.26 -1.72 -0.30 -1.72 -2.31 -0.05 -6.64 -1.82 -9.64 -3.93 -3.34 -2.41 -6.34 -6.39 -16.72 -21.89 -10.82 -16.23 -10.82 -16.18 -6.10 -18.59 4.23 -2.11 7.03 -4.82 8.85 -8.61 1.43 -2.90 1.62 -3.74 1.57 -7.23 0 -3.44 -0.20 -4.33 -1.57 -6.89 -1.92 -3.64 -2.70 -4.57 -5.66 -6.84 -4.43 -3.30 -6.98 -3.74 -22.28 -3.74 l-13.48 0 0.39 1.62 c0.20 0.84 0.34 13.97 0.34 29.12 0 21.54 -0.15 27.79 -0.64 28.67 l-0.64 1.08 4.52 0 c4.08 0 4.43 -0.05 4.08 -0.84 -0.25 -0.49 -0.49 -13.23 -0.59 -28.33 l-0.10 -27.49 9.74 0.20 c9.74 0.15 9.79 0.15 12.64 1.62 2.21 1.13 3.25 2.07 4.43 3.89 1.38 2.26 1.48 2.85 1.62 7.67 0.15 4.57 0.05 5.61 -0.89 7.82 -2.07 4.72 -6.64 7.43 -12.69 7.43 -1.43 0 -2.56 0.15 -2.46 0.39 0.10 0.20 1.82 2.90 3.89 6 2.07 3.10 5.36 8.21 7.33 11.31 10.33 16.13 14.07 21.54 16.92 24.34 5.66 5.71 11.36 7.33 17.41 4.92z m22.38 -19.38 c5.11 -1.77 8.85 -4.08 12.39 -7.67 7.28 -7.33 10.48 -17.66 8.16 -26.46 -2.70 -10.43 -10.38 -18.59 -20.31 -21.74 -3.74 -1.18 -4.52 -1.28 -9 -0.98 -5.95 0.39 -9.98 1.57 -13.87 4.13 -6.34 4.08 -10.43 9.20 -12.64 15.84 -2.56 7.62 -2.07 13.87 1.72 21.54 6.20 12.59 21.39 19.53 33.54 15.34z m254.66 0.69 c8.41 -1.77 17.16 -8.51 20.75 -15.98 3.34 -7.03 4.08 -13.18 2.26 -19.67 -1.48 -5.41 -3.64 -9.10 -7.82 -13.33 -6.15 -6.25 -13.97 -9.30 -22.03 -8.66 -7.38 0.64 -12.79 3.15 -18.34 8.71 -7.08 7.03 -10.18 16.57 -8.26 25.67 0.64 2.95 3.30 9.10 4.87 11.12 5.07 6.54 11.12 10.43 18.93 12.15 3.93 0.89 5.46 0.89 9.64 0z m60.54 0.20 c8.75 -1.87 15 -8.21 16.92 -17.12 0.49 -2.41 0.69 -7.62 0.69 -20.80 0 -10.18 0.20 -18.05 0.49 -18.79 l0.49 -1.28 -3.98 0 c-3.64 0 -3.93 0.10 -3.59 0.89 0.64 1.28 0.84 35.12 0.25 39.54 -0.64 4.67 -1.72 6.93 -4.62 9.59 -3.05 2.85 -6.49 3.79 -12.34 3.49 -7.13 -0.39 -10.43 -2.51 -13.18 -8.56 -1.08 -2.36 -1.13 -2.85 -1.28 -21.25 -0.10 -10.72 0.05 -19.77 0.30 -21 l0.49 -2.21 -3.79 0 -3.74 0 0.10 18.30 c0.10 10.18 0.39 19.77 0.69 21.54 1.97 12 14.12 20.21 26.12 17.66z m64.18 -0.74 c1.57 -0.39 4.43 -1.57 6.30 -2.61 3.34 -1.77 3.44 -1.87 3.59 -3.89 0.15 -2.21 -0.10 -2.46 -1.33 -1.43 -1.08 0.93 -6.74 3.20 -9.39 3.79 -2.90 0.59 -9 0.59 -11.80 -0.05 -5.07 -1.18 -10.38 -4.82 -13.08 -9.05 -2.85 -4.52 -3.64 -7.72 -3.64 -15 0 -5.16 0.20 -6.98 1.03 -9.44 2.02 -6 6.05 -10.67 11.21 -13.08 2.41 -1.18 3.49 -1.33 9 -1.48 7.43 -0.25 11.36 0.69 15.39 3.59 l2.46 1.72 0.15 -2.02 c0.20 -2.36 -0.20 -2.95 -3.54 -4.82 -4.28 -2.46 -9.64 -3.69 -14.80 -3.34 -8.21 0.54 -12.93 2.75 -18.98 8.71 -6.49 6.49 -9.10 12.89 -8.71 21.39 0.30 5.66 1.87 10.23 5.31 15.15 3.59 5.26 7.52 8.31 13.87 10.82 5.90 2.36 10.72 2.66 16.97 1.03z m-327.70 -0.54 c-0.25 -0.49 -0.49 -5.80 -0.59 -11.85 l-0.15 -10.97 1.72 -3.15 c2.95 -5.36 13.52 -22.43 16.57 -26.66 l2.90 -4.08 -4.18 0 -4.18 0 0 2.36 c0 2.56 -0.20 2.85 -8.61 16.97 -4.92 8.16 -4.92 8.21 -6.69 8.21 l-1.77 0 -5.90 -9.93 c-7.52 -12.64 -7.52 -12.69 -7.52 -15.39 l0 -2.21 -4.72 0 c-5.07 0 -4.97 -0.10 -2.90 2.70 1.03 1.38 12.39 19.57 16.77 26.80 l1.92 3.20 0 11.07 c0 6.10 -0.15 11.66 -0.39 12.44 l-0.34 1.33 4.23 0 c3.89 0 4.18 -0.10 3.84 -0.84z m24.44 -2.46 c0 -2.61 0.44 -4.48 1.82 -8.26 l1.82 -4.92 14.07 -0.15 14.07 -0.10 2.07 5.26 c1.57 4.18 2.02 5.95 2.02 8.41 l0 3.05 4.57 0 4.62 0 -1.43 -2.80 c-0.74 -1.57 -6 -14.36 -11.66 -28.43 l-10.23 -25.57 -3.74 -0.15 -3.79 -0.15 0 2.07 c0 2.11 -1.48 5.95 -13.52 35.61 -3.44 8.41 -6.74 16.18 -7.38 17.36 l-1.18 2.07 3.93 0 3.89 0 0.05 -3.30z m88.13 0.69 c1.18 -3.69 1.13 -3.84 -0.89 -3 -1.33 0.54 -4.28 0.69 -13.52 0.69 l-11.85 0 0.15 -26.07 0.15 -26.07 -3.74 0 -3.69 0 0.39 3.59 c0.44 3.59 0.05 51.54 -0.44 52.77 -0.20 0.59 2.41 0.69 16.18 0.69 l16.43 0 0.84 -2.61z m38.41 1.77 c-0.25 -0.49 -0.44 -13.18 -0.44 -28.18 l0 -27.30 7.87 0 c6.59 0 8.11 0.15 9.20 0.84 l1.23 0.84 0.98 -3.44 1.03 -3.39 -22.28 0 c-17.21 0 -22.38 0.15 -22.77 0.64 -0.25 0.30 -0.74 1.52 -1.08 2.70 -0.30 1.18 -0.69 2.46 -0.84 2.90 -0.25 0.64 -0.10 0.64 1.33 -0.10 1.23 -0.64 3.49 -0.89 9.89 -1.08 l8.31 -0.30 0 27.10 c0 16.43 -0.20 27.59 -0.49 28.33 l-0.49 1.28 4.48 0 c4.08 0 4.43 -0.05 4.08 -0.84z m205.87 -0.10 c-0.30 -0.59 -0.49 -6.05 -0.49 -14.26 l0 -13.33 14.51 0 14.51 0 0 13.33 c0 8.21 -0.20 13.67 -0.49 14.26 -0.49 0.89 -0.34 0.93 3.54 0.93 l4.08 0 0 -28.53 0 -28.53 -3.69 0 -3.69 0 0.15 11.80 0.15 11.80 -14.56 0 -14.56 0 0.15 -12.05 0.15 -12.05 -3.69 0 -3.69 0 0.15 27.79 c0.10 19.13 -0.05 28.08 -0.39 28.77 -0.49 0.93 -0.39 0.98 3.93 0.98 4.28 0 4.43 -0.05 3.93 -0.93z"/>
  <path d="M149.36 164.27 c-7.82 -1.97 -14.12 -9.30 -15.64 -18.34 -0.79 -4.67 -0.30 -12 1.08 -15.98 1.38 -4.03 4.72 -8.51 7.92 -10.62 3.98 -2.61 7.28 -3.34 14.07 -3.15 5.36 0.15 6 0.25 9.05 1.77 5.36 2.66 9.34 7.67 11.02 14.02 1.08 4.03 0.93 13.77 -0.30 17.61 -2.07 6.59 -5.71 10.82 -11.80 13.67 -2.31 1.08 -3.49 1.28 -8.11 1.38 -2.95 0.05 -6.25 -0.10 -7.28 -0.34z"/>
  <path d="M406.49 164.07 c-6.89 -2.16 -11.66 -6.93 -14.12 -13.97 -0.98 -2.80 -1.13 -4.28 -1.13 -9.93 0 -5.66 0.15 -7.13 1.13 -9.93 2.07 -5.95 5.71 -10.23 10.87 -12.59 2.41 -1.13 3.54 -1.33 8.90 -1.48 5.21 -0.15 6.59 -0.05 8.95 0.79 6.10 2.16 10.57 6.89 12.74 13.43 0.98 3.10 1.18 4.57 1.18 10.03 0 6.59 -0.54 9.20 -2.75 13.62 -1.18 2.31 -6.10 7.62 -7.48 8.07 -0.59 0.15 -1.43 0.59 -1.82 0.89 -2.02 1.67 -12.49 2.36 -16.48 1.08z"/>
  <path d="M246.40 146.07 c0 -1.28 1.48 -5.95 4.28 -13.33 l4.23 -11.31 2.21 0.15 2.21 0.15 4.33 10.82 c3.25 8.11 4.33 11.41 4.33 13.18 l0.05 2.31 -10.82 0 -10.82 0 0 -1.97z"/>
 </g>
 <g fill="#fbd36f">
  <path d="M320.17 277.19 c0 -1.38 0.30 -2.36 0.79 -2.80 1.82 -1.52 24.59 -2.36 33.59 -1.23 3.34 0.39 6.20 0.84 6.30 0.98 0.10 0.10 0.05 1.28 -0.15 2.66 l-0.30 2.46 -3.30 -0.25 c-7.38 -0.44 -8.41 -0.64 -8.41 -1.67 0 -0.79 0.34 -0.93 2.56 -0.93 1.38 0 2.41 -0.15 2.21 -0.30 -0.59 -0.59 -23.36 -0.54 -26.75 0.05 -1.87 0.34 -2.95 0.64 -2.46 0.69 1.52 0.10 0.98 1.87 -0.69 2.21 -3.15 0.64 -3.39 0.49 -3.39 -1.87z"/>
  <path d="M313.78 258.50 c-2.80 -6.64 -5.41 -12.10 -5.75 -12.10 -2.16 0 -4.38 -2.51 -3.74 -4.28 0.98 -2.80 3.34 -3.39 5.41 -1.33 0.93 0.93 1.18 1.52 0.93 2.56 -0.20 0.74 -0.39 1.57 -0.44 1.92 -0.10 0.59 12.30 12.44 12.98 12.44 0.39 0 0.10 -9.54 -0.34 -11.66 -0.10 -0.64 -0.54 -1.13 -0.93 -1.13 -0.84 0 -2.21 -1.87 -2.21 -3.10 0 -0.49 0.49 -1.33 1.13 -1.87 2.36 -1.97 5.71 -0.44 5.07 2.36 -0.20 0.74 -0.39 1.62 -0.44 1.97 -0.15 0.79 8.11 11.07 8.56 10.62 0.15 -0.25 1.38 -4.72 2.70 -10.03 l2.36 -9.69 -1.57 -1.77 c-2.02 -2.31 -2.11 -4.52 -0.30 -6.39 0.98 -0.93 1.82 -1.28 3.20 -1.28 4.38 0 6.10 4.87 2.80 7.87 l-1.57 1.43 2.70 10.13 c1.48 5.56 2.80 10.03 3.05 9.93 0.20 -0.05 2.21 -2.41 4.43 -5.21 4.03 -5.02 4.08 -5.16 3.44 -6.54 -1.03 -2.02 0 -4.03 2.26 -4.23 3.39 -0.34 4.77 3.25 2.07 5.41 -1.43 1.13 -1.48 1.23 -1.82 7.52 l-0.34 6.39 5.36 -5.02 c7.97 -7.43 8.26 -7.72 7.62 -8.90 -0.84 -1.57 -0.64 -2.75 0.59 -3.93 2.26 -2.11 5.26 -0.79 5.26 2.31 0 2.07 -0.69 3 -2.26 3 -0.59 0 -1.28 0.30 -1.57 0.64 -0.25 0.30 -2.66 5.71 -5.26 11.90 -2.66 6.25 -4.97 11.51 -5.16 11.71 -0.20 0.25 -3.10 0.10 -6.39 -0.34 -6.69 -0.89 -20.02 -0.98 -26.56 -0.25 -2.31 0.30 -5.51 0.59 -7.13 0.74 l-2.95 0.30 -5.16 -12.10z m27.25 -29.07 c-0.20 -0.39 -0.49 -0.59 -0.74 -0.44 -0.69 0.39 -0.49 1.18 0.30 1.18 0.44 0 0.59 -0.30 0.44 -0.74z"/>
  <path d="M234.20 210.20 c-2.61 -1.28 -4.13 -2.90 -5.80 -6.10 -1.28 -2.51 -1.18 -7.97 0.20 -10.62 1.33 -2.56 4.62 -5.46 6.93 -6.10 3 -0.84 7.38 -0.59 9.69 0.54 3.10 1.48 3.54 2.16 2.21 3.59 l-1.13 1.18 -1.67 -1.13 c-3.49 -2.36 -7.77 -1.97 -10.77 0.98 -3.89 3.93 -3.30 10.77 1.33 14.16 1.77 1.33 5.61 1.62 7.97 0.64 1.03 -0.44 2.56 -0.79 3.34 -0.79 1.77 0 2.36 1.23 1.08 2.26 -3.69 2.95 -9.10 3.49 -13.38 1.38z"/>
  <path d="M268.38 210.79 c-8.36 -3 -10.77 -14.75 -4.23 -20.71 2.66 -2.36 3.69 -2.70 8.61 -2.70 6.05 0 8.80 1.62 10.97 6.39 1.87 4.08 1.13 9.79 -1.67 13.52 -2.75 3.59 -8.90 5.16 -13.67 3.49z m8.85 -4.03 c2.56 -1.92 3.30 -3.44 3.49 -7.23 0.15 -3.10 0.05 -3.79 -0.98 -5.26 -1.87 -2.75 -4.03 -3.93 -7.28 -3.93 -5.02 0 -8.02 3.34 -8.02 8.80 0 3.98 1.38 6.30 4.82 8.16 1.97 1.03 6.20 0.74 7.97 -0.54z"/>
  <path d="M415.29 203.41 c-3.44 -4.77 -6 -7.92 -6.49 -7.92 -0.74 0 -0.84 0.84 -0.84 7.77 l0 7.72 -1.97 0 -1.97 0 0.10 -11.90 0.10 -11.95 1.72 -0.15 c1.67 -0.15 1.82 0 7.67 7.87 3.30 4.43 6.20 8.11 6.44 8.16 0.30 0.15 0.44 -2.70 0.39 -7.87 l-0.05 -8.02 1.77 0 c0.98 0 1.77 0.15 1.77 0.39 0 0.20 0 5.66 0 12.10 l0 11.80 -1.48 -0.05 c-1.38 -0.05 -2.07 -0.84 -7.18 -7.97z"/>
  <path d="M447.95 211.09 l-1.87 -0.15 0 -4.67 0 -4.62 -4.18 -6.84 c-2.31 -3.74 -4.18 -6.98 -4.18 -7.13 0 -0.15 0.98 -0.30 2.16 -0.30 1.62 0 2.26 0.20 2.46 0.89 0.74 1.97 5.51 9.39 5.95 9.30 0.25 -0.10 1.72 -2.26 3.25 -4.82 1.52 -2.56 3.05 -4.92 3.34 -5.21 0.59 -0.64 4.48 -0.93 4.48 -0.34 0 0.15 -0.64 1.13 -1.38 2.11 -1.38 1.77 -6.34 9.64 -7.43 11.75 -0.34 0.69 -0.54 2.90 -0.49 5.56 0.05 2.41 0 4.48 -0.10 4.52 -0.10 0.05 -1.03 0.05 -2.02 -0.05z"/>
  <path d="M319.68 203.61 c0 -9.30 -0.44 -9.54 -4.48 -2.80 -1.48 2.46 -3 4.52 -3.39 4.52 -0.34 0 -1.97 -2.11 -3.54 -4.67 -4.13 -6.69 -4.33 -6.59 -4.33 2.41 0 7.08 -0.05 7.43 -0.98 7.43 -0.54 0 -0.98 -0.20 -0.98 -0.49 0 -0.25 -0.44 -0.49 -1.03 -0.49 -0.98 0 -0.98 -0.15 -0.74 -10.67 l0.30 -10.72 1.23 -0.64 c0.74 -0.39 1.57 -0.54 1.97 -0.44 0.34 0.15 2.26 3.05 4.18 6.44 1.97 3.39 3.74 6.05 3.98 5.95 0.20 -0.15 1.97 -2.90 3.93 -6.15 l3.59 -5.90 2.02 0 1.97 0 0.15 11.80 0.15 11.80 -1.97 0 -2.02 0 0 -7.38z"/>
  <path d="M339.84 199.48 c0 -10.03 0.10 -11.56 0.79 -11.80 0.44 -0.15 3.25 -0.30 6.25 -0.30 6.30 0 8.26 0.69 9.89 3.39 1.33 2.26 1.33 6.49 0 8.26 -1.97 2.61 -3.98 3.59 -7.52 3.59 -5.61 0 -5.56 0 -5.36 4.48 l0.15 3.89 -2.07 0 -2.11 0 0 -11.51z m10.92 -0.34 c3.69 -0.98 4.43 -5.90 1.23 -7.87 -1.23 -0.74 -2.26 -0.93 -4.77 -0.84 l-3.20 0.15 -0.15 3.89 c-0.10 2.16 -0.05 4.18 0.10 4.57 0.30 0.79 4.13 0.89 6.79 0.10z"/>
  <path d="M367.53 210.40 c0.15 -0.34 2.16 -5.26 4.52 -10.97 2.36 -5.66 4.38 -10.72 4.52 -11.16 0.20 -0.69 0.79 -0.89 2.46 -0.89 2.51 0 1.87 -1.03 7.38 12.54 1.72 4.33 3.59 8.61 4.08 9.49 l0.93 1.57 -2.41 0 c-1.43 0 -2.46 -0.25 -2.46 -0.54 0 -0.30 -0.49 -1.62 -1.03 -2.95 l-1.03 -2.41 -5.51 0 -5.51 0 -1.03 2.85 c-0.98 2.75 -1.03 2.80 -3.10 2.95 -1.57 0.15 -2.02 0 -1.82 -0.49z m14.36 -11.80 c-0.64 -1.72 -1.38 -3.69 -1.67 -4.43 -0.89 -2.36 -1.82 -1.62 -3.44 2.70 -0.84 2.26 -1.52 4.23 -1.52 4.43 0 0.20 1.77 0.34 3.93 0.34 l3.89 0 -1.18 -3.05z"/>
  <path d="M113.41 172.53 c-2.51 -3.89 -6.30 -9.79 -8.46 -13.18 -2.11 -3.34 -5.80 -9 -8.16 -12.54 -3.15 -4.72 -4.13 -6.54 -3.74 -6.98 0.30 -0.39 1.67 -0.64 3.30 -0.64 6.20 0 10.77 -2.66 12.84 -7.48 0.89 -2.07 1.03 -3.25 0.89 -6.30 -0.20 -5.16 -1.92 -7.97 -6 -10.08 -2.61 -1.33 -3.49 -1.48 -8.26 -1.67 -5.21 -0.15 -5.31 -0.20 -5.31 -1.33 0 -1.18 0 -1.18 5.61 -1.18 7.23 0 9.79 0.79 13.23 4.08 2.51 2.41 3.39 2.75 4.62 1.72 0.49 -0.39 0.34 -0.84 -0.59 -1.97 -1.18 -1.38 -1.77 -4.82 -0.84 -4.82 0.98 0 4.67 4.28 6.10 7.03 1.52 2.90 1.57 3.34 1.62 8.46 0 5.16 -0.10 5.61 -1.62 8.71 -1.82 3.74 -4.77 6.59 -8.75 8.56 -1.48 0.74 -2.75 1.48 -2.90 1.67 -0.20 0.34 17.12 26.66 19.23 29.16 1.57 1.87 1.48 2.31 -0.49 2.31 -1.72 0 -2.31 -0.49 -3.98 -3.25 -0.54 -0.89 -2.75 -4.03 -4.92 -6.98 -2.85 -3.98 -4.23 -5.51 -5.16 -5.66 -0.69 -0.10 -1.67 -0.39 -2.21 -0.59 -0.89 -0.39 -0.89 -0.34 0.15 1.43 0.59 0.98 1.08 2.11 1.08 2.46 0 0.34 0.39 1.03 0.89 1.57 0.49 0.49 1.03 1.33 1.23 1.77 0.15 0.49 1.62 2.85 3.30 5.26 2.02 3 2.95 4.92 2.95 5.95 0 0.79 -0.25 1.48 -0.49 1.48 -0.30 0 -2.56 -3.15 -5.11 -6.98z"/>
  <path d="M73.38 167.71 c0.93 -1.52 1.87 -2.46 2.41 -2.46 0.79 0 0.93 0.39 0.93 2.46 l0 2.46 -2.46 0 -2.41 0 1.52 -2.46z"/>
  <path d="M356.37 166.87 c0.25 -0.49 0.49 -12.44 0.59 -26.56 l0.15 -25.72 1.43 0 c1.38 0 1.48 0.10 1.48 1.97 0 1.38 0.20 1.97 0.69 1.97 0.39 0 0.89 -0.20 1.03 -0.49 0.15 -0.25 0.69 -0.49 1.23 -0.49 0.98 0 1.48 -0.93 1.48 -2.75 0 -0.98 0.25 -1.18 1.38 -1.18 l1.33 0 -0.15 25.08 -0.10 25.08 -1.23 0 c-1.18 0 -1.23 -0.15 -1.23 -2.95 0 -2.66 -0.15 -3.05 -1.08 -3.39 -1.23 -0.44 -2.41 -0.20 -2.95 0.64 -0.15 0.25 -0.49 2.56 -0.64 5.07 l-0.34 4.57 -1.72 0 c-1.48 0 -1.67 -0.15 -1.33 -0.84z"/>
  <path d="M273.94 165.64 c0 -0.89 -0.93 -3.98 -2.02 -6.93 l-2.07 -5.26 -12.59 0.10 -12.59 0.15 -1.72 4.82 c-1.33 3.69 -1.92 4.77 -2.61 4.77 -0.84 0 -0.89 -0.34 -0.74 -2.70 0.20 -3.59 -0.54 -3.49 -2.85 0.25 -1.48 2.46 -2.07 2.95 -3.15 2.95 l-1.33 0 4.43 -10.92 c2.46 -6.05 6.69 -16.48 9.44 -23.26 4.23 -10.43 5.11 -12.30 6.05 -12.44 0.93 -0.15 1.08 0.05 1.08 1.38 0 1.33 0.15 1.52 0.89 1.23 0.44 -0.20 1.77 -0.49 2.90 -0.59 1.97 -0.25 2.11 -0.20 3.15 1.52 0.74 1.23 1.38 1.77 2.21 1.77 1.48 0 1.48 -0.64 -0.05 -4.72 -1.48 -3.93 -1.67 -7.08 -0.34 -7.08 0.64 0 3 5.41 11.07 25.48 5.66 13.97 10.38 25.82 10.52 26.31 0.20 0.69 -0.05 0.84 -1.28 0.84 -1.33 0 -1.67 -0.30 -2.90 -2.80 -1.23 -2.51 -1.57 -2.90 -3.15 -3.15 -1.72 -0.25 -1.77 -0.25 -1.33 0.98 0.30 0.64 0.64 2.95 0.79 5.07 0.30 3.69 0.25 3.84 -0.79 3.84 -0.84 0 -1.03 -0.30 -1.03 -1.57z m-7.43 -19.92 c-0.05 -1.77 -8.66 -22.53 -9.39 -22.67 -0.54 -0.10 -1.82 2.80 -4.97 11.16 -2.36 6.25 -4.28 11.56 -4.28 11.85 0 0.30 3.39 0.49 9.34 0.49 8.56 0 9.34 -0.05 9.30 -0.84z"/>
  <path d="M213.35 161.71 l-0.15 -4.57 -1.72 0.15 c-0.93 0.10 -1.77 0.25 -1.82 0.30 -0.10 0.10 -0.30 1.82 -0.44 3.89 -0.34 3.69 -0.39 3.79 -1.62 3.79 l-1.28 0 0 -9.98 0 -9.93 -1.92 -3.20 c-4.57 -7.52 -15.79 -25.48 -16.92 -27.05 -0.69 -0.93 -1.82 -2.31 -2.46 -3.05 -0.64 -0.69 -1.03 -1.52 -0.89 -1.82 0.49 -0.74 15.05 -0.74 15.05 0 0 1.82 -2.36 3.25 -3.20 1.92 -0.30 -0.49 -6.74 -0.74 -7.18 -0.25 -0.15 0.10 0.98 1.57 2.51 3.20 2.07 2.21 3.10 2.95 4.08 2.95 1.13 0 1.33 -0.20 1.33 -1.48 0 -1.08 0.25 -1.48 0.89 -1.48 0.69 0 2.56 2.80 6.93 10.23 6.30 10.67 7.28 12.20 7.62 11.85 0.10 -0.10 3.10 -5.11 6.69 -11.12 4.77 -7.97 6.79 -10.97 7.48 -10.97 0.64 0 0.89 0.39 0.89 1.48 0 1.13 0.25 1.48 0.93 1.48 0.49 0 1.18 -0.34 1.52 -0.74 0.34 -0.44 1.43 -0.74 2.56 -0.74 l1.92 0 -1.43 2.11 c-2.16 3.10 -13.18 21.10 -15.15 24.69 l-1.77 3.20 0.20 9.84 0.15 9.84 -1.33 0 -1.33 0 -0.15 -4.52z"/>
  <path d="M393.94 164.41 c-5.36 -4.38 -9.59 -11.36 -10.82 -17.71 -0.93 -4.77 -0.39 -12.93 1.08 -16.97 1.72 -4.62 4.33 -8.75 5.46 -8.75 0.79 0 0.89 0.30 0.74 1.87 -0.15 0.98 -0.39 2.21 -0.59 2.70 -0.34 0.69 -0.15 0.84 0.98 0.79 1.13 0 1.92 -0.64 3.79 -2.95 2.26 -2.75 2.46 -2.90 4.57 -2.90 l2.26 0 -2.51 2.75 c-4.52 4.97 -6.20 9.44 -6.20 16.92 0 4.08 0.25 5.85 1.13 8.46 2.02 5.90 5.56 9.98 10.82 12.59 3.34 1.67 3.34 2.56 0 2.56 -2.70 0 -5.80 -1.57 -8.26 -4.18 -1.08 -1.13 -2.90 -1.62 -3.59 -0.93 -0.15 0.20 0.59 1.38 1.67 2.66 1.43 1.72 1.97 2.70 1.82 3.64 l-0.15 1.28 -2.21 -1.82z"/>
  <path d="M134.22 162.25 c-8.51 -8.51 -11.41 -20.71 -7.57 -32.16 1.43 -4.38 4.43 -9.25 5.80 -9.49 0.84 -0.15 0.93 0.10 0.74 2.11 -0.10 2.02 0 2.41 0.89 2.70 0.84 0.34 1.33 -0.05 3.05 -2.26 1.87 -2.41 2.21 -2.66 4.03 -2.66 2.11 0 2.46 0.44 1.13 1.52 -1.87 1.52 -5.07 6.54 -6 9.39 -2.21 6.79 -1.77 13.82 1.23 20.07 1.82 3.84 5.80 8.21 8.51 9.30 0.93 0.39 1.52 1.03 1.52 1.57 0 0.74 -0.34 0.93 -1.87 0.93 -2.11 0 -4.57 -1.52 -7.97 -4.92 -1.87 -1.87 -3.93 -2.61 -3.93 -1.43 0 0.64 1.67 3.15 3.30 4.92 0.84 0.89 1.13 1.77 1.03 2.70 -0.15 1.43 -0.20 1.38 -3.89 -2.31z"/>
  <path d="M489.36 164.02 c0 -0.98 0.39 -2.31 0.84 -3 1.33 -2.02 -0.10 -2.36 -1.97 -0.49 -3.20 3.10 -4.82 3.98 -7.72 3.98 -2.07 0 -2.70 -0.20 -2.85 -0.79 -0.10 -0.54 0.49 -0.93 1.92 -1.38 2.41 -0.74 6.05 -3.93 7.38 -6.54 1.52 -2.95 1.92 -7.62 1.92 -22.87 l0 -14.41 1.23 0 c0.93 0 1.23 0.25 1.23 1.13 0 0.59 0.15 1.57 0.30 2.11 0.25 0.98 0.34 1.03 1.72 0.34 1.33 -0.64 1.43 -0.89 1.43 -3.54 0 -1.57 0.15 -3.59 0.30 -4.43 0.30 -1.33 0.49 -1.52 1.97 -1.52 1.57 0 1.62 0.05 1.18 1.28 -0.30 0.74 -0.49 8.61 -0.49 18.79 0 19.13 -0.30 21.89 -2.70 26.71 -1.28 2.56 -4.43 6.34 -5.26 6.34 -0.20 0 -0.39 -0.79 -0.39 -1.72z"/>
  <path d="M293.22 140.91 l0.15 -24.34 1.03 0 c0.89 0 1.08 0.39 1.38 2.26 0.15 1.28 0.30 3.49 0.30 4.92 l0 2.66 1.97 0 c2.07 0 2.26 -0.25 2.56 -3.69 0.10 -1.08 0.44 -1.52 1.28 -1.62 l1.08 -0.15 0 20.66 c0 18.10 0.10 20.71 0.74 20.71 0.39 0 0.74 0.34 0.74 0.74 0 0.49 -0.49 0.74 -1.67 0.74 -1.87 0 -1.97 -0.15 -2.51 -4.03 l-0.30 -2.36 -1.97 0 -1.92 0 0 2.21 c0 1.23 -0.20 2.21 -0.49 2.21 -0.25 0 -0.49 0.79 -0.49 1.72 0 1.43 -0.20 1.72 -0.98 1.72 -1.03 0 -1.03 -0.15 -0.89 -24.34z"/>
  <path d="M563.03 139.68 l-0.15 -25.57 1.08 0 c1.43 0 1.67 0.44 2.02 4.33 l0.34 3.30 1.48 -0.15 c0.84 -0.10 1.67 -0.49 1.87 -0.89 0.20 -0.39 1.03 -0.69 1.82 -0.69 l1.48 0 0 6.89 0 6.89 13.03 0 13.03 0 0 -5.90 c0 -5.90 0 -5.90 1.18 -5.90 1.18 0 1.77 1.38 1.77 4.23 0 1.57 0.69 1.82 2.41 0.93 1.23 -0.59 1.48 -1.08 1.62 -2.80 0.15 -1.92 0.30 -2.11 1.52 -2.26 l1.33 -0.15 0 17.71 0 17.75 -1.23 0 c-0.89 0 -1.38 -0.34 -1.72 -1.23 -0.39 -0.98 -0.79 -1.23 -2.11 -1.23 -1.67 0 -1.67 0.05 -2.26 2.80 -0.30 1.52 -0.54 3.64 -0.54 4.67 0 1.52 -0.15 1.87 -0.98 1.87 -0.93 0 -0.98 -0.34 -0.98 -11.31 l0 -11.31 -13.03 0 -13.03 0 0 10.33 0 10.33 -1.48 0 c-1.48 0 -1.48 0 -1.48 -2.80 0 -3.54 -0.39 -5.07 -1.28 -5.07 -0.39 0 -0.69 -0.20 -0.69 -0.49 0 -0.25 -0.44 -0.49 -0.98 -0.49 -0.93 0 -0.98 0.34 -0.98 4.43 0 2.61 -0.20 4.43 -0.49 4.43 -0.25 0 -0.49 0.69 -0.49 1.48 0 1.13 -0.20 1.48 -0.98 1.48 -0.93 0 -0.98 -0.44 -1.08 -25.57z"/>
  <path d="M82.13 160.38 c0 -5.11 -0.15 -5.46 -2.51 -5.46 l-1.92 0 0 4.18 0 4.18 -1.52 0 c-1.38 0 -1.52 -0.15 -1.23 -1.08 0.15 -0.64 0.30 -11.61 0.30 -24.34 l0 -23.26 1.23 0 c0.89 0 1.23 0.25 1.23 0.98 0 0.84 0.34 0.98 1.97 0.98 l1.92 0 0.34 -2.46 c0.30 -2.36 0.39 -2.46 1.92 -2.46 1.03 0 1.72 0.30 1.92 0.79 0.44 1.08 0.39 1.18 -0.44 1.18 -0.64 0 -0.74 3.15 -0.74 25.33 l0 25.33 -1.23 0 c-1.23 0 -1.23 -0.05 -1.23 -3.89z"/>
  <path d="M161.32 163.48 c0 -0.64 0.69 -1.23 2.11 -1.77 3.25 -1.38 7.52 -5.02 9.20 -7.87 2.70 -4.67 3.59 -8.56 3.34 -14.56 -0.25 -5.90 -1.28 -9.39 -3.79 -13.08 l-1.57 -2.26 1.87 0 c1.48 0 2.11 0.30 3.10 1.43 0.69 0.79 1.92 1.57 2.75 1.77 l1.57 0.30 -0.25 -2.21 c-0.25 -2.02 -0.20 -2.26 0.74 -2.26 0.79 0 1.43 0.84 2.75 3.44 4.52 9.05 4.23 19.53 -0.79 29.12 -1.48 2.80 -6.44 8.75 -7.33 8.75 -0.69 0 -0.49 -3.25 0.25 -3.89 1.03 -0.84 1.28 -2.41 0.44 -2.70 -0.39 -0.15 -1.18 0.20 -1.77 0.74 -0.59 0.59 -2.51 2.07 -4.23 3.30 -2.56 1.82 -3.59 2.26 -5.75 2.46 -2.36 0.20 -2.66 0.10 -2.66 -0.69z"/>
  <path d="M514.64 163.04 c-2.31 -1.82 -6.59 -8.31 -8.02 -12.25 -1.18 -3.15 -1.28 -4.18 -1.28 -10.62 0 -6.59 0.10 -7.43 1.38 -10.82 1.57 -4.33 4.62 -9 5.95 -9.25 0.84 -0.20 0.89 0.05 0.69 2.07 -0.25 1.92 -0.15 2.26 0.69 2.56 0.74 0.20 1.38 -0.10 2.21 -0.98 0.89 -0.98 1.67 -1.28 3.10 -1.28 1.92 0 2.56 0.59 1.43 1.28 -1.03 0.64 -3.84 5.56 -4.82 8.46 -0.79 2.26 -1.03 4.28 -1.03 7.97 0 3.69 0.25 5.71 1.03 7.97 0.98 2.95 3.79 7.82 4.82 8.51 0.93 0.54 0.05 1.23 -1.62 1.23 -0.93 0 -1.92 -0.34 -2.26 -0.74 -0.54 -0.64 -3.44 -1.08 -3.44 -0.49 0 0.59 1.28 3.10 2.11 3.98 0.54 0.64 0.84 1.62 0.74 2.36 l-0.15 1.28 -1.52 -1.23z"/>
  <path d="M461.32 160.87 c-1.62 -1.67 -2.61 -3.20 -3.20 -5.16 -0.84 -2.66 -0.98 -2.80 -2.41 -2.66 -1.48 0.15 -1.48 0.15 -1.33 3 0.10 2.46 0 2.80 -0.84 2.80 -0.69 0 -1.18 -0.69 -1.87 -2.56 -0.79 -2.31 -0.93 -4.82 -1.18 -22.53 -0.15 -10.97 -0.44 -20.21 -0.64 -20.51 -0.30 -0.49 0.05 -0.64 1.28 -0.64 l1.72 0 0.20 4.67 c0.10 2.56 0.34 4.77 0.49 4.97 0.20 0.15 0.98 0 1.82 -0.34 1.57 -0.74 2.02 -1.92 2.02 -5.90 0 -2.31 0.05 -2.41 1.38 -2.41 l1.33 0 0 19.33 0 19.28 1.28 2.70 c1.48 3.15 3.54 5.71 4.87 6.15 0.54 0.20 0.98 0.74 0.98 1.28 0 0.74 -0.34 0.93 -1.82 0.93 -1.52 0 -2.16 -0.39 -4.08 -2.41z"/>
  <path d="M435.75 158.41 c0 -0.79 0.44 -2.26 1.03 -3.20 0.89 -1.52 0.93 -1.77 0.25 -1.77 -0.44 0 -0.79 -0.20 -0.79 -0.49 0 -0.98 -1.48 -0.44 -2.31 0.89 -1.67 2.66 -4.08 4.52 -5.85 4.52 l-1.67 0 2.16 -2.66 c3.64 -4.52 5.56 -11.26 5.02 -17.71 -0.39 -4.08 -2.21 -9.54 -3.93 -11.85 -1.67 -2.21 -1.62 -2.70 0.39 -2.70 1.23 0 1.97 0.34 2.70 1.28 0.79 1.03 1.28 1.23 2.26 0.98 l1.28 -0.34 -1.48 -2.07 c-0.79 -1.13 -2.02 -2.61 -2.70 -3.25 -1.43 -1.33 -1.87 -4.48 -0.59 -4.48 1.08 0 6.84 6.54 8.56 9.69 2.66 5.07 3.69 9.84 3.44 16.13 -0.30 6.25 -1.48 10.43 -4.38 15.20 -2.07 3.44 -3.39 4.13 -3.39 1.82z"/>
  <path d="M553.29 125.95 c0 -0.20 -1.08 -1.52 -2.46 -2.85 -1.33 -1.33 -2.31 -2.61 -2.11 -2.75 0.59 -0.64 3.34 -0.34 4.48 0.44 0.89 0.59 1.08 1.23 1.08 3.20 0 1.33 -0.20 2.41 -0.49 2.41 -0.25 0 -0.49 -0.20 -0.49 -0.44z"/>
  <path d="M384.11 117.59 c0 -0.25 -0.64 -1.08 -1.48 -1.87 -1.57 -1.48 -1.92 -2.61 -0.79 -2.61 0.34 0 0.93 -0.34 1.28 -0.74 0.34 -0.39 1.28 -0.74 2.07 -0.74 1.18 0 1.43 0.15 1.18 0.79 -0.20 0.44 -0.54 1.77 -0.84 2.95 -0.49 1.97 -1.43 3.39 -1.43 2.21z"/>
 </g>
 <g fill="#f6c255">
  <path d="M322.73 278.52 c-0.93 -0.20 -1.13 -0.49 -0.98 -1.77 0.15 -1.52 0.20 -1.57 3.84 -2.16 4.87 -0.84 26.51 -0.59 30.89 0.34 2.61 0.59 3.05 0.84 3.05 1.77 0 1.08 -0.15 1.08 -9.69 1.38 -18.10 0.54 -25.97 0.69 -27.10 0.44z"/>
  <path d="M319.68 268.83 c0 -0.54 1.38 -1.82 1.82 -1.67 0.20 0.05 2.07 -0.10 4.08 -0.34 4.18 -0.49 11.80 -0.64 11.80 -0.25 0 0.20 0.74 0.20 1.67 0.10 0.89 -0.10 1.77 0 1.92 0.25 0.15 0.25 -0.10 0.44 -0.54 0.49 -4.97 0.34 -15.69 1.18 -17.90 1.43 -1.57 0.20 -2.85 0.20 -2.85 0z"/>
  <path d="M355.34 268.53 c-0.79 -0.20 -3.34 -0.39 -5.66 -0.44 -3.84 -0.10 -8.80 -0.74 -7.62 -1.03 0.30 -0.05 4.23 -0.20 8.80 -0.25 7.52 -0.10 8.36 -0.05 9.05 0.79 0.39 0.49 0.98 0.74 1.23 0.59 0.30 -0.15 0.34 -0.05 0.15 0.25 -0.39 0.64 -3.64 0.69 -5.95 0.10z"/>
  <path d="M338.66 231.60 c-1.57 -1.23 -1.57 -1.77 -0.15 -3.59 1.48 -1.82 3.34 -1.52 4.28 0.64 0.79 1.97 0.25 3.64 -1.08 3.20 -0.69 -0.20 -0.89 -0.10 -0.69 0.25 0.59 0.93 -0.98 0.59 -2.36 -0.49z"/>
  <path d="M300.06 207.20 c0.05 -3.25 0.15 -3.49 0.39 -1.77 0.39 2.46 1.03 3.34 1.03 1.48 0 -0.69 0.25 -1.43 0.49 -1.57 0.30 -0.15 0.49 0.15 0.49 0.69 0 0.59 0.20 1.03 0.39 1.03 0.20 0 0.64 0.89 0.93 1.97 l0.49 1.97 -2.11 0 -2.16 0 0.05 -3.79z"/>
  <path d="M341.02 210.25 c-0.39 -0.98 0.25 -4.18 0.79 -4.18 0.49 0 0.59 0.44 0.74 3.44 0.10 1.57 -1.03 2.11 -1.52 0.74z"/>
  <path d="M320.71 208.92 c0.05 -0.89 0.20 -2.16 0.44 -2.85 l0.34 -1.23 0.34 1.28 c0.49 1.77 0.20 4.03 -0.54 4.28 -0.44 0.10 -0.64 -0.34 -0.59 -1.48z"/>
  <path d="M420.55 209.81 c-0.84 -0.98 -1.52 -3.69 -1.03 -3.98 0.69 -0.44 2.36 1.43 2.70 3.10 0.25 1.18 0.15 1.57 -0.39 1.57 -0.39 0 -0.98 -0.30 -1.28 -0.69z"/>
  <path d="M423.60 192.55 c0 -1.87 0.10 -2.61 0.20 -1.57 0.10 0.98 0.10 2.56 0 3.44 -0.10 0.84 -0.20 0.05 -0.20 -1.87z"/>
  <path d="M131.17 189.84 c-4.08 -1.03 -7.57 -3.54 -11.46 -8.31 -1.48 -1.72 -2.56 -3.30 -2.41 -3.39 0.10 -0.10 -1.13 -2.16 -2.75 -4.57 -1.62 -2.41 -3.10 -4.77 -3.25 -5.26 -0.20 -0.44 -0.74 -1.28 -1.23 -1.77 -0.49 -0.54 -0.89 -1.33 -0.89 -1.72 -0.05 -1.08 -1.23 -2.56 -1.72 -2.11 -0.25 0.20 -0.25 0.05 -0.05 -0.30 0.20 -0.34 -0.10 -1.33 -0.64 -2.26 -1.08 -1.72 -1.33 -3.25 -0.59 -3.25 0.30 0 0.59 0.20 0.74 0.44 0.15 0.25 0.93 0.34 1.77 0.25 0.89 -0.10 2.07 0.20 2.85 0.69 1.23 0.79 1.28 0.79 0.93 -0.05 -0.74 -1.92 0.79 -0.59 3.44 3 4.43 6.05 6.98 9.54 8.16 11.41 0.64 0.93 1.48 1.67 1.87 1.62 0.39 -0.05 1.38 0.79 2.16 1.92 1.97 2.66 6.49 6 9.93 7.28 2.16 0.79 3.89 1.03 7.28 1.03 l4.43 -0.05 -1.48 1.23 c-0.84 0.69 -2.85 1.92 -4.57 2.80 -2.56 1.28 -3.79 1.57 -6.89 1.67 -2.07 0.10 -4.62 -0.05 -5.66 -0.30z"/>
  <path d="M149.22 170.46 c-3.74 -0.89 -9.74 -3.59 -11.90 -5.46 -2.07 -1.72 -6.98 -8.36 -6.98 -9.34 0 -0.89 0.59 -0.93 1.38 -0.15 0.39 0.39 0.59 0.39 0.59 0.05 0 -0.30 1.03 -0.64 2.36 -0.74 2.21 -0.20 2.41 -0.10 4.67 2.21 3 2.95 6.34 5.21 6.59 4.43 0.15 -0.39 0.93 -0.25 2.51 0.49 1.82 0.79 3.30 1.03 6.74 1.03 8.16 0 9.69 -0.34 13.13 -2.80 1.72 -1.23 3.64 -2.70 4.23 -3.30 1.03 -0.98 1.52 -1.08 3.93 -0.79 1.52 0.20 2.85 0.44 2.95 0.54 0.15 0.10 -0.25 1.03 -0.84 2.02 -0.59 0.98 -0.98 2.11 -0.84 2.46 0.59 1.52 -6.84 6.49 -12.84 8.61 -3.74 1.33 -11.56 1.67 -15.69 0.74z"/>
  <path d="M406.98 170.41 c-5.85 -1.28 -11.12 -3.93 -13.08 -6.59 -0.59 -0.84 -1.33 -1.33 -1.57 -1.18 -0.30 0.15 -0.34 0.05 -0.15 -0.25 0.15 -0.30 0.10 -0.64 -0.15 -0.84 -0.84 -0.49 -2.07 -3.34 -1.62 -3.79 0.25 -0.25 1.57 -0.74 2.95 -1.08 l2.46 -0.69 1.67 1.72 c2.56 2.61 5.85 4.57 7.82 4.52 0.89 0 2.46 0.20 3.39 0.49 3.34 1.03 10.97 0.30 12.84 -1.28 0.39 -0.34 1.03 -0.64 1.38 -0.64 0.30 0 1.52 -0.89 2.70 -1.97 1.18 -1.08 2.36 -1.97 2.70 -1.97 0.54 0 0.74 -0.69 0.54 -1.72 -0.05 -0.25 0.10 -0.34 0.25 -0.15 0.64 0.64 2.11 -0.54 3.25 -2.56 1.13 -2.02 3.89 -3.59 3.89 -2.16 0 0.34 0.34 0.69 0.74 0.69 0.39 0 0.74 0.20 0.74 0.44 0 0.25 0.44 0.34 0.98 0.20 0.84 -0.25 0.93 0 0.84 1.97 -0.05 1.23 -0.30 2.07 -0.54 1.92 -0.25 -0.15 -0.30 0.10 -0.15 0.59 0.20 0.44 0.15 0.74 -0.05 0.59 -0.20 -0.15 -0.69 0.20 -1.03 0.79 -0.44 0.69 -0.44 0.89 -0.05 0.64 1.48 -0.89 -0.69 1.77 -3.59 4.48 -7.38 6.93 -17.71 9.89 -27.15 7.82z"/>
  <path d="M467.96 170.46 c-5.85 -1.43 -11.16 -5.02 -13.92 -9.39 -0.93 -1.48 -1.28 -2.75 -1.38 -5.16 -0.10 -1.77 -0.05 -3.54 0.05 -3.93 0.25 -0.79 2.11 -1.13 4.48 -0.74 1.38 0.25 1.62 0.59 2.36 2.90 0.84 2.66 3.49 6.25 5.31 7.23 0.74 0.39 0.93 0.39 0.69 0 -0.49 -0.79 0 -0.69 2.31 0.54 1.82 0.98 2.80 1.13 7.97 1.13 6.54 0 7.18 -0.25 11.16 -4.28 l1.77 -1.87 2.41 0.64 c2.70 0.69 2.80 1.23 0.84 4.38 -0.69 1.03 -1.08 2.11 -0.93 2.31 0.39 0.69 -3.15 3.54 -5.85 4.72 -5.02 2.21 -12 2.80 -17.26 1.52z"/>
  <path d="M530.28 170.61 c-7.23 -1.23 -16.38 -6.79 -17.56 -10.67 -0.15 -0.59 -0.54 -0.93 -0.84 -0.79 -0.30 0.20 -0.39 0.15 -0.25 -0.15 0.15 -0.25 -0.34 -1.72 -1.13 -3.30 -1.72 -3.44 -1.48 -4.38 0.69 -2.31 1.57 1.52 3.93 1.87 4.67 0.64 0.25 -0.39 0.84 -0.10 1.77 0.89 0.74 0.79 1.57 1.33 1.82 1.18 0.20 -0.15 1.43 0.64 2.75 1.72 5.16 4.33 11.21 6.10 17.26 5.07 3.74 -0.64 8.80 -2.61 11.16 -4.38 0.84 -0.64 2.02 -1.13 2.61 -1.13 1.03 0 1.08 0.15 0.93 4.08 l-0.15 4.03 -4.18 2.11 c-6.25 3.15 -12.74 4.13 -19.57 3z"/>
  <path d="M74.95 169.73 c0.20 -0.25 0.05 -0.54 -0.25 -0.64 -0.44 -0.15 -0.44 -0.44 0 -1.28 0.74 -1.38 0.25 -1.38 -0.98 0.05 l-0.98 1.08 0.89 -1.48 c0.54 -0.84 1.13 -3.34 1.43 -6.15 0.54 -4.38 0.59 -4.48 0.74 -1.97 0.10 2.07 0.20 1.52 0.39 -2.16 0.20 -3.30 0.49 -4.97 0.93 -5.11 0.30 -0.10 0.59 0.15 0.59 0.54 0 0.54 0.59 0.74 2.46 0.69 1.38 0 2.46 -0.25 2.51 -0.54 0.15 -1.77 0.84 2.61 0.98 6.10 0.10 3.74 0.15 3.93 0.39 1.72 0.34 -2.41 0.34 -2.41 0.54 1.28 0.20 3.05 0.49 4.08 1.62 5.71 0.74 1.03 1.33 2.07 1.33 2.26 0 0.20 -2.90 0.34 -6.44 0.34 -3.74 0 -6.30 -0.20 -6.15 -0.44z"/>
  <path d="M204.74 168.10 c0.69 -1.18 1.38 -2.75 1.52 -3.49 0.20 -0.74 0.54 -1.23 0.79 -1.08 0.30 0.20 0.49 -0.39 0.49 -1.33 0 -0.89 0.15 -2.75 0.30 -4.13 0.30 -2.31 0.39 -2.51 1.62 -2.41 0.69 0.05 1.87 -0.10 2.56 -0.30 2.46 -0.64 2.90 0.15 2.90 4.97 0 3.69 0.10 4.33 0.74 4.13 0.49 -0.20 0.74 0 0.74 0.69 0 0.49 0.54 1.77 1.23 2.75 0.69 0.98 1.23 1.92 1.23 2.02 0 0.15 -3.44 0.25 -7.62 0.25 l-7.67 0 1.18 -2.07z"/>
  <path d="M228.20 169.87 c0 -0.15 0.64 -1.13 1.43 -2.11 0.74 -0.98 1.77 -2.51 2.21 -3.39 0.44 -0.89 1.28 -2.07 1.82 -2.61 0.54 -0.54 0.84 -1.18 0.69 -1.43 -0.20 -0.30 -0.10 -0.49 0.20 -0.49 0.30 0 1.18 -1.13 1.92 -2.51 1.03 -1.72 1.52 -2.26 1.72 -1.72 0.30 0.79 2.51 0.84 3.74 0.10 0.74 -0.44 0.69 0.93 -0.05 2.31 -0.30 0.59 -0.64 2.80 -0.74 4.92 -0.15 3.30 0 4.13 0.89 5.56 l1.03 1.67 -7.43 0 c-4.08 0 -7.43 -0.15 -7.43 -0.30z"/>
  <path d="M272.47 169.97 c0 -0.10 0.44 -1.23 1.03 -2.51 0.64 -1.48 0.93 -2.80 0.74 -3.64 -0.20 -0.69 -0.39 -1.82 -0.49 -2.51 -0.05 -0.69 -0.49 -2.36 -0.93 -3.74 l-0.74 -2.56 1.77 0 c1.03 0 2.07 0.20 2.41 0.49 0.34 0.25 1.03 0.34 1.57 0.15 1.03 -0.30 2.11 0.93 3.64 4.33 0.44 0.98 1.13 1.82 1.48 1.82 0.34 0 0.93 0.79 1.28 1.72 0.34 0.93 1.48 2.80 2.56 4.18 l1.92 2.46 -8.11 0 c-4.48 0 -8.11 -0.10 -8.11 -0.20z"/>
  <path d="M290.66 169.92 c0 -0.15 0.59 -1.13 1.33 -2.26 1.13 -1.72 1.33 -2.66 1.62 -7.48 0.25 -4.28 0.39 -4.87 0.49 -2.56 l0.15 2.95 0.30 -2.56 c0.34 -2.90 0.64 -3.34 1.87 -2.85 0.49 0.20 1.72 0.39 2.75 0.49 2.31 0.15 2.36 0.25 2.61 2.56 0.54 4.52 -0.64 4.08 11.26 4.08 10.18 0 10.72 -0.05 13.62 -1.23 3.39 -1.38 5.07 -1.57 4.67 -0.59 -0.15 0.34 -0.84 2.70 -1.62 5.16 l-1.33 4.52 -18.89 0 c-10.33 0 -18.84 -0.10 -18.84 -0.25z"/>
  <path d="M354.60 169.63 c0 -0.30 0.44 -1.08 0.98 -1.77 0.54 -0.69 0.98 -1.57 0.98 -2.02 0 -0.54 0.15 -0.59 0.69 -0.15 0.54 0.49 0.74 -0.20 1.03 -3.98 0.54 -6.79 0.79 -7.77 1.72 -6.30 0.30 0.39 0.49 0.49 0.49 0.20 0 -0.59 2.21 -0.49 4.08 0.25 1.23 0.49 1.33 0.69 1.33 3.49 0 1.87 0.20 2.90 0.49 2.70 0.30 -0.20 0.49 0.34 0.49 1.23 0 1.52 1.52 5.07 2.46 5.66 1.52 0.93 -0.15 1.23 -7.13 1.23 -5.16 0 -7.62 -0.15 -7.62 -0.54z"/>
  <path d="M560.67 169.87 c0 -0.15 0.54 -1.18 1.18 -2.31 0.69 -1.13 1.38 -3.05 1.57 -4.28 0.20 -1.23 0.54 -2.31 0.74 -2.46 0.20 -0.15 0.44 -2.66 0.49 -5.56 0.05 -2.90 0.25 -5.26 0.49 -5.26 0.25 0 0.44 0.30 0.44 0.64 0 0.44 0.10 0.44 0.39 0 0.30 -0.44 0.59 -0.34 1.08 0.34 0.39 0.54 1.08 0.98 1.57 0.98 0.49 0 0.89 0.20 0.89 0.44 0 0.25 0.44 0.54 0.98 0.69 0.54 0.15 0.98 0.44 0.93 0.69 -0.20 1.13 0.10 7.18 0.34 6.93 0.15 -0.15 0.44 -3.05 0.64 -6.39 l0.39 -6.05 0.10 8.61 c0.05 8.21 0.10 8.71 1.28 10.57 0.64 1.08 1.23 2.11 1.23 2.36 0 0.20 -3.30 0.34 -7.38 0.34 -4.03 0 -7.38 -0.15 -7.38 -0.30z"/>
  <path d="M596.57 169.97 c0 -0.10 0.54 -1.13 1.18 -2.31 0.74 -1.33 1.33 -3.39 1.52 -5.36 0.30 -3.15 1.08 -7.82 1.52 -9.49 0.15 -0.44 0.49 -0.74 0.74 -0.54 0.25 0.15 0.34 0.44 0.25 0.64 -0.15 0.20 0.93 0.34 2.41 0.25 2.51 -0.10 2.66 -0.05 3.15 1.33 0.25 0.79 0.69 1.43 0.98 1.43 0.25 0 0.54 2.36 0.64 5.31 0.15 4.52 0.30 5.46 1.28 6.84 0.59 0.84 1.08 1.67 1.08 1.82 0 0.15 -3.30 0.30 -7.38 0.30 -4.03 0 -7.38 -0.10 -7.38 -0.20z"/>
  <path d="M599.23 146.81 c0 -2.70 0.05 -3.74 0.15 -2.31 0.10 1.43 0.10 3.64 0 4.92 -0.10 1.28 -0.15 0.10 -0.15 -2.61z"/>
  <path d="M608.57 145.58 c0 -2.56 0.05 -3.64 0.15 -2.31 0.10 1.28 0.10 3.34 0 4.67 -0.10 1.28 -0.15 0.20 -0.15 -2.36z"/>
  <path d="M459.31 131.95 c-0.05 -11.02 -0.20 -15.74 -0.44 -13.28 -0.20 2.11 -0.44 3.89 -0.54 3.93 -0.10 0.05 -0.69 0.39 -1.28 0.74 -0.64 0.30 -1.48 0.59 -1.87 0.59 -0.39 0 -0.74 0.20 -0.74 0.39 0 0.20 -0.54 0.44 -1.23 0.49 -0.93 0.05 -1.23 -0.15 -1.28 -0.89 -0.05 -0.54 -0.15 -1.18 -0.20 -1.48 -0.05 -0.25 -0.15 -2.26 -0.20 -4.43 -0.05 -2.80 -0.25 -3.93 -0.64 -3.93 -0.98 0 -2.36 -2.75 -1.72 -3.39 0.49 -0.49 13.13 -0.84 13.13 -0.34 0 0.15 -0.49 1.08 -1.08 2.11 -1.13 1.82 -1.13 2.11 -1.13 19.18 0 9.54 -0.15 17.36 -0.34 17.36 -0.25 0 -0.44 -7.67 -0.44 -17.07z"/>
  <path d="M357.25 132.30 c0 -3.93 0.10 -5.51 0.15 -3.54 0.10 1.92 0.10 5.16 0 7.13 -0.05 1.92 -0.15 0.34 -0.15 -3.59z"/>
  <path d="M497.37 131.56 c0 -1.33 0.10 -1.87 0.20 -1.08 0.10 0.74 0.10 1.82 0 2.46 -0.10 0.59 -0.20 0 -0.20 -1.38z"/>
  <path d="M385.58 129.74 c0 -0.44 0.25 -1.03 2.11 -4.67 0.98 -1.82 1.18 -2.61 0.74 -2.75 -1.03 -0.39 6.44 -7.33 9.79 -9.10 4.52 -2.36 7.18 -3.10 13.03 -3.39 6.15 -0.34 10.03 0.30 14.51 2.31 3.98 1.82 7.82 4.43 7.08 4.87 -0.34 0.25 -0.10 0.79 0.74 1.57 1.57 1.43 5.11 6.74 5.11 7.67 0 0.34 -0.44 0.64 -0.98 0.64 -0.54 0 -0.98 0.25 -0.98 0.54 0 0.34 -0.59 0.49 -1.48 0.34 -1.08 -0.15 -1.48 -0.05 -1.48 0.54 -0.05 0.49 -0.69 0.05 -1.72 -1.18 -0.93 -1.08 -1.97 -1.97 -2.31 -1.97 -0.34 0 -1.67 -1.03 -2.90 -2.26 -3.39 -3.39 -7.13 -4.97 -12.20 -5.26 -5.11 -0.30 -8.46 0.44 -12.10 2.61 -1.57 0.93 -3.10 1.72 -3.49 1.72 -0.34 0 -1.72 1.33 -3 2.90 -1.97 2.46 -2.61 2.95 -3.93 2.95 -0.84 0.05 -1.72 0.30 -1.87 0.54 -0.15 0.30 -0.74 0.49 -1.28 0.49 -0.54 0 -1.08 0.30 -1.23 0.69 -0.30 0.74 -2.16 0.89 -2.16 0.20z"/>
  <path d="M294.94 129.50 c-0.10 -0.25 -0.25 -1.72 -0.30 -3.34 -0.10 -4.57 -0.59 -8.11 -1.08 -7.82 -0.25 0.15 -0.44 -0.79 -0.44 -2.11 0 -1.48 -0.34 -2.95 -0.98 -3.98 -0.74 -1.18 -0.84 -1.67 -0.39 -1.77 1.52 -0.49 13.67 -0.69 13.67 -0.25 0 0.25 -0.49 1.13 -1.08 1.97 -0.93 1.23 -1.18 2.26 -1.28 5.51 -0.10 2.21 -0.34 4.48 -0.59 5.02 -0.34 0.74 -0.79 3.89 -0.98 6.59 0 0.10 -0.30 -0.10 -0.64 -0.39 -0.39 -0.30 -0.84 -0.39 -0.98 -0.20 -0.20 0.15 -0.34 0.10 -0.34 -0.20 0 -0.25 -0.34 -0.49 -0.74 -0.49 -0.39 0 -0.74 0.20 -0.74 0.44 0 0.20 0.25 0.39 0.54 0.39 0.25 0 0.34 0.25 0.20 0.49 -0.34 0.59 -3.54 0.69 -3.84 0.15z"/>
  <path d="M599.18 126.89 c0 -1.77 0.10 -2.46 0.20 -1.57 0.10 0.84 0.10 2.31 0 3.20 -0.10 0.84 -0.20 0.15 -0.20 -1.62z"/>
  <path d="M601.05 129.15 c-0.20 -0.30 -0.54 -1.62 -0.74 -3 -0.15 -1.33 -0.54 -2.51 -0.79 -2.61 -0.30 -0.10 -0.49 -2.16 -0.49 -4.67 0 -3.10 -0.25 -4.97 -0.74 -5.95 -1.38 -2.56 -0.93 -2.75 6.39 -2.75 l6.69 0 -1.13 1.62 c-1.03 1.48 -1.13 2.21 -1.43 9.93 -0.15 4.62 -0.30 6.84 -0.34 5.02 -0.10 -3.54 -1.08 -4.33 -1.08 -0.84 0 1.48 -0.25 2.07 -1.08 2.51 -1.77 0.93 -4.77 1.38 -5.26 0.74z"/>
  <path d="M174.25 127.04 c-0.69 -0.89 -1.48 -1.57 -1.77 -1.48 -0.25 0.05 -1.48 -0.93 -2.70 -2.21 -1.28 -1.38 -3.54 -3.05 -5.46 -3.98 -2.70 -1.33 -3.89 -1.62 -7.48 -1.72 -6.49 -0.30 -10.72 1.18 -15.44 5.31 -1.38 1.18 -1.57 1.28 -0.79 0.34 0.69 -0.74 0.93 -1.33 0.64 -1.33 -0.30 0 -1.72 1.48 -3.15 3.25 -1.43 1.82 -2.66 3.05 -2.75 2.70 -0.10 -0.30 -0.39 -0.39 -0.64 -0.25 -0.30 0.15 -0.79 0.05 -1.18 -0.30 -0.34 -0.30 -1.28 -0.64 -2.07 -0.74 -0.74 -0.10 -1.43 -0.20 -1.48 -0.20 -0.05 -0.05 0.30 -0.98 0.84 -2.11 0.54 -1.28 0.74 -2.21 0.44 -2.41 -0.79 -0.49 3.34 -4.72 7.23 -7.28 4.87 -3.30 8.61 -4.38 16.13 -4.77 5.41 -0.30 6.44 -0.25 9.69 0.79 4.48 1.33 6.25 2.21 10.18 5.11 3.10 2.31 8.02 8.21 7.03 8.56 -0.34 0.10 -0.30 0.74 0.20 1.92 0.39 0.93 0.74 1.97 0.74 2.21 0 0.25 -1.57 0.39 -3.49 0.34 -3.30 -0.10 -3.49 -0.15 -4.72 -1.77z"/>
  <path d="M84.30 121.72 c0 -3.54 0.05 -4.87 0.15 -3.05 0.10 1.82 0.10 4.72 0 6.39 -0.10 1.67 -0.15 0.20 -0.15 -3.34z"/>
  <path d="M488.86 121.23 c-0.20 -5.90 -0.39 -7.13 -1.33 -8.66 -0.74 -1.33 -0.89 -1.97 -0.49 -2.36 0.59 -0.59 13.33 -0.79 13.03 -0.15 -0.10 0.20 -0.69 1.43 -1.33 2.75 -0.74 1.52 -1.28 2.16 -1.52 1.82 -0.49 -0.84 -0.98 1.82 -0.98 5.36 0 1.77 -0.25 3.05 -0.64 3.39 -0.39 0.30 -0.79 0.44 -0.93 0.30 -0.15 -0.15 -0.54 0.05 -0.89 0.49 -0.49 0.59 -0.49 0.74 0.20 0.74 0.79 0 0.79 0.10 0.10 0.74 -0.39 0.39 -0.84 0.74 -0.98 0.74 -0.15 0 -0.30 -0.34 -0.30 -0.74 0 -0.39 -0.20 -0.74 -0.49 -0.74 -0.25 0 -0.34 0.34 -0.20 0.74 0.20 0.44 0 0.74 -0.44 0.74 -0.39 0 -0.89 0.30 -0.98 0.64 -0.15 0.30 -0.30 -0.10 -0.30 -0.93 -0.05 -0.84 -0.20 -2.61 -0.39 -3.93 -0.39 -2.31 -0.39 -2.26 -0.64 1.77 -0.25 3.98 -0.25 3.84 -0.49 -2.70z"/>
  <path d="M572.37 127.09 c-0.25 -0.20 -0.39 -1.57 -0.39 -3.10 -0.05 -2.41 -0.10 -2.66 -0.69 -1.87 -0.34 0.44 -1.08 0.84 -1.57 0.84 -0.64 0 -0.74 0.15 -0.34 0.39 0.79 0.49 0.15 1.43 -1.08 1.57 -2.07 0.25 -2.70 0 -2.36 -0.84 0.20 -0.54 0.15 -0.69 -0.25 -0.44 -0.64 0.39 -0.89 -0.54 -1.28 -4.38 -0.15 -1.33 -0.89 -3.74 -1.67 -5.26 -2.07 -3.98 -1.62 -4.33 6.15 -4.33 3.25 0 6 0.15 6.20 0.30 0.15 0.20 -0.20 0.98 -0.79 1.77 -0.98 1.28 -1.13 2.21 -1.33 8.61 -0.15 3.89 -0.39 6.93 -0.59 6.74z"/>
  <path d="M512.47 126.40 c0 -0.25 -0.44 -0.49 -0.98 -0.49 -1.18 0 -1.18 0.15 -0.25 -2.41 0.39 -1.13 0.49 -1.92 0.25 -1.77 -0.30 0.15 -0.49 0.10 -0.49 -0.15 0 -1.08 7.43 -7.33 10.38 -8.80 4.92 -2.36 6.98 -2.80 14.21 -2.80 7.62 -0.05 11.66 0.89 15.98 3.74 l2.46 1.62 0.15 3.64 c0.15 3.98 -0.34 5.11 -1.72 3.89 -1.48 -1.23 -2.31 -1.62 -1.82 -0.84 0.25 0.44 -0.10 0.34 -1.03 -0.25 -5.31 -3.49 -8.61 -4.43 -14.95 -4.13 -5.80 0.25 -9.05 1.57 -13.18 5.41 -1.57 1.43 -2.56 2.21 -2.16 1.77 1.13 -1.48 -0.30 -1.03 -1.67 0.49 -0.89 1.03 -1.72 1.43 -3.20 1.48 -1.13 0.10 -1.97 -0.10 -1.97 -0.39z"/>
  <path d="M259.19 123 c-0.54 -1.08 -1.23 -2.11 -1.52 -2.31 -0.39 -0.25 -0.39 -0.05 0 0.69 0.74 1.38 0.74 1.43 -0.69 1.67 -1.08 0.25 -1.18 0.15 -0.89 -1.03 0.30 -1.18 0.25 -1.23 -0.54 -0.44 -0.64 0.64 -1.08 0.74 -2.02 0.39 -0.69 -0.25 -1.57 -0.34 -1.97 -0.20 -0.89 0.34 -0.89 0.39 -0.30 -1.62 0.30 -0.98 0.30 -1.62 0 -1.72 -0.25 -0.10 -0.10 -1.18 0.34 -2.51 0.64 -1.92 0.69 -2.66 0.25 -3.64 -0.34 -0.74 -0.39 -1.48 -0.15 -1.72 0.25 -0.25 2.80 -0.34 5.75 -0.30 5.02 0.15 5.31 0.20 5.71 1.28 0.30 0.74 0.25 1.03 -0.05 0.84 -0.74 -0.44 -0.59 0.25 0.93 4.48 2.16 6 2.21 6.44 0.93 6.89 -0.64 0.20 -1.62 0.39 -2.21 0.39 -0.59 0.05 -1.23 0.25 -1.43 0.44 -0.69 0.69 -1.18 0.34 -2.16 -1.57z"/>
  <path d="M563.28 121.72 c0 -1.62 0.10 -2.21 0.20 -1.33 0.10 0.89 0.10 2.21 0 2.95 -0.10 0.74 -0.20 0 -0.20 -1.62z"/>
  <path d="M358.53 118.77 c0 -3.20 -0.84 -3.64 -1.13 -0.59 -0.10 1.43 -0.20 1.03 -0.25 -1.33 l-0.10 -3.39 -6.89 0.30 c-7.52 0.34 -9.10 0.84 -12.54 3.84 -0.98 0.89 -1.72 1.23 -1.72 0.89 0 -1.13 3.05 -11.46 3.54 -12.10 0.39 -0.49 5.46 -0.64 22.33 -0.64 15.39 0 22.48 -0.20 24.05 -0.59 1.18 -0.34 2.31 -0.44 2.51 -0.30 0.15 0.20 -0.25 1.92 -0.84 3.93 -1.08 3.49 -2.75 5.75 -4.28 5.80 -0.34 0 -0.49 0.25 -0.34 0.49 0.44 0.74 -0.10 0.59 -1.57 -0.34 -1.08 -0.74 -2.46 -0.89 -7.77 -0.89 -6.39 0 -6.39 0 -6.54 1.18 -0.15 0.79 -0.30 0.98 -0.59 0.59 -0.20 -0.39 -0.49 0.39 -0.69 1.87 -0.30 2.31 -0.44 2.46 -1.28 2.02 -0.59 -0.34 -1.03 -0.34 -1.23 0 -0.15 0.25 -0.93 0.49 -1.72 0.49 -0.74 0 -1.48 0.34 -1.67 0.74 -0.59 1.62 -1.28 0.59 -1.28 -1.97z"/>
  <path d="M224.91 119.66 c0.15 -0.79 0.44 -1.82 0.64 -2.31 0.30 -0.74 0.20 -0.84 -0.30 -0.54 -0.49 0.30 -0.54 0.15 -0.25 -0.79 0.39 -1.23 0.44 -2.70 0.15 -4.87 l-0.15 -1.23 7.03 -0.15 c3.84 -0.05 6.98 0 6.98 0.10 0 0.64 -6.05 8.16 -6.59 8.16 -0.34 0 -1.13 0.54 -1.77 1.23 -1.23 1.33 -2.41 1.57 -3.30 0.69 -0.44 -0.44 -0.79 -0.39 -1.38 0.25 -1.13 1.13 -1.38 0.98 -1.08 -0.54z"/>
  <path d="M81.64 118.97 c0 -0.74 -0.34 -0.84 -1.72 -0.74 -0.93 0.10 -2.02 0.39 -2.41 0.74 -0.74 0.64 -1.28 -0.20 -1.28 -1.97 0 -0.49 -0.20 -0.93 -0.44 -0.93 -0.30 0 -0.59 -1.03 -0.79 -2.31 -0.15 -1.33 -0.69 -3.20 -1.18 -4.18 -0.64 -1.28 -0.74 -1.97 -0.39 -2.31 0.34 -0.34 5.51 -0.54 15.64 -0.54 13.62 0 15.39 0.10 18.20 0.98 3.34 1.03 7.03 3.20 6.59 3.93 -0.15 0.20 0.30 1.03 0.93 1.82 2.11 2.51 3.74 6.49 2.07 5.11 -0.49 -0.39 -0.98 -0.34 -2.07 0.15 -3.20 1.52 -3.79 1.43 -5.80 -0.93 -1.67 -2.02 -3.30 -3.10 -2.46 -1.57 0.20 0.34 0.15 0.44 -0.10 0.20 -0.25 -0.25 -0.44 -0.69 -0.44 -0.98 0 -1.38 -3.84 -2.51 -8.85 -2.56 l-4.92 -0.10 3.93 0.30 c3.54 0.30 3.10 0.34 -4.08 0.54 -5.07 0.15 -8.02 0.05 -8.16 -0.25 -0.10 -0.25 -0.34 1.08 -0.54 3 -0.25 2.46 -0.54 3.49 -1.03 3.49 -0.39 0 -0.69 -0.39 -0.69 -0.89z"/>
  <path d="M190.68 117.45 c-1.08 -1.28 -2.16 -2.21 -2.41 -2.07 -0.20 0.15 -0.34 0.10 -0.30 -0.15 0.10 -0.25 -0.44 -1.08 -1.18 -1.87 -0.79 -0.79 -1.38 -1.72 -1.38 -2.02 0 -0.79 2.41 -1.18 7.33 -1.18 4.82 0.05 6 0.59 5.61 2.56 -0.15 0.69 0 1.77 0.34 2.36 0.44 0.84 0.44 1.18 0.05 1.48 -0.44 0.25 -0.44 0.69 -0.05 1.67 0.25 0.74 0.49 1.43 0.49 1.52 0 0.10 -1.48 0.10 -3.25 0.10 -3.30 -0.10 -3.30 -0.10 -5.26 -2.41z"/>
 </g>
</svg>